<svg width="20" height="21" viewBox="0 0 20 21" fill="none" xmlns="http://www.w3.org/2000/svg">
<path fill-rule="evenodd" clip-rule="evenodd" d="M6.34146 6.10352e-05C5.51304 6.10352e-05 4.84146 0.671634 4.84146 1.50006C4.84146 2.32849 5.51304 3.00006 6.34146 3.00006H16.7578V12.4234C16.7578 13.2518 17.4294 13.9234 18.2578 13.9234C19.0863 13.9234 19.7578 13.2518 19.7578 12.4234V2.50006C19.7578 1.11935 18.6386 6.10352e-05 17.2578 6.10352e-05H6.34146ZM1 4.9147H14.122C14.6742 4.9147 15.122 5.36241 15.122 5.9147V19.0366C15.122 19.5889 14.6742 20.0366 14.122 20.0366H1C0.447715 20.0366 0 19.5889 0 19.0366V5.9147C0 5.36241 0.447715 4.9147 1 4.9147Z" fill="#6A6A6A"/>
</svg>
